<svg width="21" height="20" viewBox="0 0 21 20" fill="none" xmlns="http://www.w3.org/2000/svg">
<path d="M1.33252 4.16666H19.6659V15.4167H1.33252V4.16666Z" fill="#ECEFF1"/>
<path d="M1.3335 4.16666H19.6668V5.41666H1.3335V4.16666ZM1.3335 6.66666H19.6668V7.91666H1.3335V6.66666ZM1.3335 9.16666H19.6668V10.4167H1.3335V9.16666ZM1.3335 11.6667H19.6668V12.9167H1.3335V11.6667ZM1.3335 14.1667H19.6668V15.4167H1.3335V14.1667Z" fill="#F44336"/>
<path d="M1.3335 4.16666H10.0835V10.4167H1.3335V4.16666Z" fill="#3F51B5"/>
<path d="M2.271 5L2.46391 5.41167L2.896 5.4775L2.5835 5.79833L2.65766 6.25L2.271 6.03667L1.88433 6.25L1.9585 5.79833L1.646 5.4775L2.07808 5.41167L2.271 5ZM3.93766 5L4.13058 5.41167L4.56266 5.4775L4.25016 5.79833L4.32433 6.25L3.93766 6.03667L3.551 6.25L3.62516 5.79833L3.31266 5.4775L3.74475 5.41167L3.93766 5ZM5.60433 5L5.79725 5.41167L6.22933 5.4775L5.91683 5.79833L5.991 6.25L5.60433 6.03667L5.21766 6.25L5.29183 5.79833L4.97933 5.4775L5.41141 5.41167L5.60433 5ZM7.271 5L7.46391 5.41167L7.896 5.4775L7.5835 5.79833L7.65766 6.25L7.271 6.03667L6.88433 6.25L6.9585 5.79833L6.646 5.4775L7.07808 5.41167L7.271 5ZM8.8335 5L9.02641 5.41167L9.4585 5.4775L9.146 5.79833L9.22016 6.25L8.8335 6.03667L8.44683 6.25L8.521 5.79833L8.2085 5.4775L8.64058 5.41167L8.8335 5ZM2.271 8.33333L2.46391 8.745L2.896 8.81083L2.5835 9.13167L2.65766 9.58333L2.271 9.37L1.88433 9.58333L1.9585 9.13167L1.646 8.81083L2.07808 8.745L2.271 8.33333ZM3.93766 8.33333L4.13058 8.745L4.56266 8.81083L4.25016 9.13167L4.32433 9.58333L3.93766 9.37L3.551 9.58333L3.62516 9.13167L3.31266 8.81083L3.74475 8.745L3.93766 8.33333ZM5.60433 8.33333L5.79725 8.745L6.22933 8.81083L5.91683 9.13167L5.991 9.58333L5.60433 9.37L5.21766 9.58333L5.29183 9.13167L4.97933 8.81083L5.41141 8.745L5.60433 8.33333ZM7.271 8.33333L7.46391 8.745L7.896 8.81083L7.5835 9.13167L7.65766 9.58333L7.271 9.37L6.88433 9.58333L6.9585 9.13167L6.646 8.81083L7.07808 8.745L7.271 8.33333ZM8.8335 8.33333L9.02641 8.745L9.4585 8.81083L9.146 9.13167L9.22016 9.58333L8.8335 9.37L8.44683 9.58333L8.521 9.13167L8.2085 8.81083L8.64058 8.745L8.8335 8.33333ZM2.68766 6.66667L2.88058 7.07833L3.31266 7.14417L3.00016 7.465L3.07433 7.91667L2.68766 7.70333L2.301 7.91667L2.37516 7.465L2.06266 7.14417L2.49475 7.07833L2.68766 6.66667ZM4.35433 6.66667L4.54725 7.07833L4.97933 7.14417L4.66683 7.465L4.741 7.91667L4.35433 7.70333L3.96766 7.91667L4.04183 7.465L3.72933 7.14417L4.16141 7.07833L4.35433 6.66667ZM6.021 6.66667L6.21391 7.07833L6.646 7.14417L6.3335 7.465L6.40766 7.91667L6.021 7.70333L5.63433 7.91667L5.7085 7.465L5.396 7.14417L5.82808 7.07833L6.021 6.66667ZM7.68766 6.66667L7.88058 7.07833L8.31266 7.14417L8.00016 7.465L8.07433 7.91667L7.68766 7.70333L7.301 7.91667L7.37516 7.465L7.06266 7.14417L7.49475 7.07833L7.68766 6.66667ZM9.25016 6.66667L9.44308 7.07833L9.87516 7.14417L9.56266 7.465L9.63683 7.91667L9.25016 7.70333L8.8635 7.91667L8.93766 7.465L8.62516 7.14417L9.05725 7.07833L9.25016 6.66667Z" fill="white"/>
</svg>
