<svg width="8" height="8" viewBox="0 0 8 8" fill="none" xmlns="http://www.w3.org/2000/svg">
<path d="M0.945721 1.05439C0.830441 1.17333 0.767084 1.33316 0.769565 1.49878C0.772047 1.6644 0.840165 1.82226 0.958957 1.9377L3.02135 4.00009L0.958957 6.06248C0.899566 6.12022 0.852242 6.18918 0.819735 6.26536C0.787229 6.34155 0.770187 6.42343 0.769602 6.50626C0.769016 6.58908 0.784898 6.6712 0.816324 6.74783C0.84775 6.82447 0.894094 6.89409 0.952662 6.95266C1.01123 7.01123 1.08086 7.05757 1.15749 7.089C1.23413 7.12043 1.31624 7.13631 1.39907 7.13572C1.48189 7.13514 1.56378 7.1181 1.63996 7.08559C1.71614 7.05308 1.78511 7.00576 1.84284 6.94637L3.90523 4.88397L5.96763 6.94637C6.02536 7.00576 6.09433 7.05308 6.17051 7.08559C6.24669 7.1181 6.32858 7.13514 6.4114 7.13572C6.49423 7.13631 6.57634 7.12043 6.65298 7.089C6.72961 7.05757 6.79924 7.01123 6.85781 6.95266C6.91638 6.89409 6.96272 6.82447 6.99415 6.74783C7.02557 6.6712 7.04145 6.58908 7.04087 6.50626C7.04028 6.42343 7.02324 6.34155 6.99074 6.26536C6.95823 6.18918 6.9109 6.12022 6.85151 6.06248L4.78912 4.00009L6.85151 1.93769C6.9109 1.87996 6.95823 1.811 6.99074 1.73481C7.02324 1.65863 7.04028 1.57675 7.04087 1.49392C7.04145 1.4111 7.02557 1.32898 6.99415 1.25235C6.96272 1.17571 6.91638 1.10609 6.85781 1.04752C6.79924 0.988949 6.72961 0.942605 6.65298 0.911179C6.57634 0.879753 6.49423 0.863871 6.4114 0.864457C6.32858 0.865042 6.24669 0.882083 6.17051 0.914589C6.09433 0.947096 6.02536 0.99442 5.96763 1.05381L3.90523 3.11621L1.84284 1.05381C1.78454 0.993811 1.71478 0.946127 1.63771 0.913582C1.56064 0.881038 1.47782 0.864296 1.39416 0.86435C1.3105 0.864403 1.2277 0.881252 1.15067 0.913895C1.07364 0.946538 1.00395 0.994312 0.945721 1.05439Z" fill="#262B3F"/>
</svg>
